<?xml version="1.0" standalone="no"?>
<!DOCTYPE svg PUBLIC "-//W3C//DTD SVG 20010904//EN"
 "http://www.w3.org/TR/2001/REC-SVG-20010904/DTD/svg10.dtd">
<svg version="1.0" xmlns="http://www.w3.org/2000/svg"
 width="2048.000000pt" height="2048.000000pt" viewBox="0 0 2048.000000 2048.000000"
 preserveAspectRatio="xMidYMid meet">
<metadata>
Created by potrace 1.14, written by Peter Selinger 2001-2017
</metadata>
<g transform="translate(0.000000,2048.000000) scale(0.100000,-0.100000)"
fill="#000000" stroke="none">
<path d="M12325 20382 c-16 -1 -111 -7 -210 -12 -285 -17 -406 -35 -645 -95
-58 -15 -117 -29 -133 -32 -15 -3 -30 -9 -33 -14 -3 -5 -16 -9 -29 -9 -13 0
-27 -4 -30 -10 -3 -5 -15 -10 -26 -10 -10 0 -27 -4 -37 -9 -18 -9 -58 -26
-102 -44 -14 -5 -33 -13 -42 -18 -10 -5 -25 -9 -33 -9 -8 0 -15 -4 -15 -10 0
-5 -7 -10 -15 -10 -8 0 -23 -4 -33 -9 -9 -6 -73 -37 -142 -70 -135 -65 -183
-92 -188 -103 -2 -5 -10 -8 -18 -8 -8 0 -24 -9 -36 -20 -12 -11 -28 -20 -35
-20 -7 0 -13 -4 -13 -10 0 -5 -5 -10 -11 -10 -12 0 -212 -136 -262 -178 -53
-45 -309 -304 -352 -356 -22 -27 -45 -54 -50 -60 -6 -6 -33 -40 -60 -75 -28
-35 -59 -73 -70 -85 -11 -11 -31 -37 -45 -56 -13 -19 -27 -37 -30 -40 -14 -12
-160 -229 -160 -238 0 -6 -3 -12 -7 -14 -10 -4 -73 -107 -73 -119 0 -5 -4 -9
-10 -9 -5 0 -10 -7 -10 -15 0 -8 -3 -15 -8 -15 -4 0 -13 -15 -21 -32 -8 -18
-17 -35 -20 -38 -6 -5 -84 -161 -160 -320 -23 -47 -41 -91 -41 -97 0 -7 -4
-13 -10 -13 -5 0 -10 -9 -10 -20 0 -11 -5 -30 -12 -43 -24 -47 -28 -57 -28
-75 0 -10 -4 -22 -8 -28 -5 -5 -14 -29 -21 -54 -8 -25 -17 -56 -21 -70 -5 -14
-16 -59 -25 -100 -9 -41 -20 -91 -24 -110 -10 -41 -26 -156 -40 -289 -6 -52
-15 -99 -20 -104 -7 -7 -29 2 -65 26 -31 21 -59 37 -64 37 -4 0 -14 9 -22 20
-8 11 -19 20 -25 20 -5 0 -32 20 -58 45 -27 24 -94 77 -150 117 -56 40 -103
76 -105 80 -2 5 -8 8 -14 8 -5 0 -29 14 -53 30 -24 17 -48 30 -53 30 -6 0 -12
4 -14 9 -3 8 -247 129 -303 151 -11 4 -33 13 -50 20 -39 16 -62 25 -105 40
-42 15 -79 29 -102 41 -10 5 -27 9 -37 9 -11 0 -23 5 -26 10 -3 6 -17 10 -30
10 -13 0 -26 4 -29 9 -3 5 -18 11 -33 14 -16 2 -62 14 -103 25 -133 37 -194
53 -245 63 -27 6 -68 15 -90 21 -113 27 -397 76 -570 99 -339 44 -865 44
-1225 0 -215 -27 -446 -65 -550 -91 -19 -5 -62 -14 -95 -21 -61 -12 -192 -45
-300 -75 -33 -9 -72 -19 -88 -21 -15 -3 -30 -9 -33 -14 -3 -5 -16 -9 -29 -9
-13 0 -27 -4 -30 -10 -3 -5 -15 -10 -26 -10 -10 0 -28 -4 -39 -10 -11 -5 -29
-14 -40 -20 -11 -5 -29 -10 -39 -10 -11 0 -23 -4 -26 -10 -3 -5 -15 -10 -26
-10 -10 0 -27 -4 -37 -9 -23 -11 -59 -26 -102 -41 -19 -7 -48 -18 -65 -25 -28
-13 -52 -21 -205 -77 -36 -12 -67 -26 -68 -30 -2 -5 -10 -8 -18 -8 -8 0 -22
-4 -32 -9 -9 -5 -39 -19 -67 -31 -27 -12 -58 -26 -67 -31 -10 -5 -25 -9 -33
-9 -8 0 -15 -3 -15 -7 0 -9 -49 -33 -67 -33 -7 0 -13 -4 -13 -10 0 -5 -6 -10
-12 -10 -16 0 -322 -152 -326 -162 -2 -5 -12 -8 -23 -8 -10 0 -19 -3 -19 -7 0
-5 -10 -13 -23 -19 -42 -21 -112 -59 -117 -64 -3 -3 -16 -11 -29 -18 -68 -39
-92 -53 -164 -96 -43 -25 -83 -46 -88 -46 -5 0 -9 -4 -9 -10 0 -5 -6 -10 -13
-10 -7 0 -22 -8 -33 -17 -10 -10 -31 -24 -46 -32 -16 -8 -28 -18 -28 -23 0 -4
-6 -8 -13 -8 -7 0 -23 -9 -35 -20 -12 -11 -26 -20 -32 -20 -5 0 -10 -4 -10 -8
0 -5 -12 -15 -27 -23 -16 -8 -30 -16 -33 -19 -3 -3 -36 -28 -75 -55 -38 -27
-75 -54 -81 -60 -6 -5 -26 -21 -44 -35 -18 -14 -42 -33 -54 -44 -11 -10 -37
-30 -56 -45 -19 -14 -42 -33 -50 -41 -8 -9 -42 -38 -75 -65 -71 -60 -293 -282
-344 -345 -20 -25 -43 -52 -51 -60 -9 -8 -27 -31 -40 -50 -13 -19 -31 -42 -40
-50 -8 -8 -21 -27 -29 -42 -8 -16 -18 -28 -23 -28 -4 0 -8 -5 -8 -10 0 -6 -15
-32 -32 -58 -45 -65 -83 -132 -138 -242 -12 -25 -26 -53 -31 -62 -5 -10 -9
-25 -9 -33 0 -8 -4 -15 -10 -15 -5 0 -10 -11 -10 -24 0 -14 -4 -28 -10 -31 -5
-3 -10 -17 -10 -30 0 -13 -4 -26 -9 -29 -9 -6 -11 -12 -35 -166 -28 -178 -12
-432 35 -547 5 -13 13 -33 18 -45 26 -68 82 -169 134 -238 51 -68 174 -191
216 -216 17 -10 31 -22 31 -26 0 -4 6 -8 13 -8 7 0 22 -8 33 -18 23 -22 154
-85 232 -113 31 -11 65 -24 74 -30 10 -5 27 -9 37 -9 11 0 23 -4 26 -10 3 -5
19 -10 35 -10 16 0 31 -4 34 -9 6 -8 32 -14 129 -27 23 -3 51 -9 62 -14 11 -5
47 -12 80 -15 33 -3 110 -10 170 -17 144 -15 977 -14 1200 1 407 27 645 48
950 81 55 6 136 15 180 20 89 10 208 24 333 40 239 30 284 36 487 66 61 8 137
18 170 21 33 3 64 9 69 14 6 5 34 9 62 9 29 0 56 5 59 10 3 6 33 10 65 10 32
0 62 5 65 10 8 13 82 13 90 1 3 -5 -12 -22 -32 -38 -21 -15 -39 -31 -41 -35
-2 -5 -9 -8 -15 -8 -7 0 -25 -12 -42 -26 -16 -14 -42 -33 -57 -42 -16 -9 -28
-20 -28 -24 0 -4 -7 -8 -15 -8 -8 0 -15 -4 -15 -8 0 -4 -13 -16 -30 -25 -16
-10 -35 -23 -42 -30 -7 -7 -33 -25 -58 -42 -25 -16 -50 -34 -56 -40 -6 -5 -26
-21 -44 -35 -28 -21 -89 -68 -170 -133 -32 -25 -166 -132 -183 -147 -11 -8
-38 -32 -60 -52 -23 -21 -45 -38 -49 -38 -4 0 -22 -15 -40 -32 -19 -18 -60
-55 -93 -83 -33 -27 -70 -59 -81 -70 -12 -11 -41 -36 -65 -54 -58 -46 -519
-509 -589 -591 -30 -36 -61 -72 -70 -80 -9 -8 -38 -42 -65 -75 -28 -33 -57
-67 -65 -75 -8 -8 -27 -31 -42 -52 -15 -20 -34 -42 -41 -50 -7 -7 -24 -29 -37
-48 -13 -19 -27 -37 -31 -40 -10 -8 -219 -317 -219 -325 0 -3 -9 -15 -20 -27
-11 -12 -20 -28 -20 -35 0 -7 -4 -13 -10 -13 -5 0 -10 -9 -10 -20 0 -11 -4
-20 -9 -20 -5 0 -11 -8 -14 -17 -3 -10 -29 -60 -56 -112 -28 -52 -51 -100 -51
-108 0 -7 -4 -13 -10 -13 -5 0 -10 -9 -10 -20 0 -11 -4 -20 -10 -20 -5 0 -10
-7 -10 -15 0 -9 -9 -35 -20 -57 -11 -23 -20 -50 -20 -59 0 -10 -4 -21 -10 -24
-5 -3 -10 -15 -10 -26 0 -10 -4 -27 -9 -37 -15 -31 -31 -88 -31 -115 0 -14 -4
-28 -9 -31 -24 -15 -35 -365 -13 -466 6 -30 14 -71 18 -90 4 -19 10 -39 14
-45 4 -5 13 -31 21 -57 7 -27 17 -48 21 -48 4 0 8 -9 8 -20 0 -11 5 -20 10
-20 6 0 10 -5 10 -10 0 -22 100 -158 166 -226 107 -109 293 -228 464 -296 14
-6 33 -14 42 -19 10 -5 27 -9 38 -9 11 0 20 -4 20 -10 0 -5 11 -10 25 -10 14
0 33 -4 43 -9 22 -12 227 -57 317 -70 39 -6 102 -15 142 -21 90 -13 611 -13
701 0 37 5 108 14 157 20 50 7 140 21 200 32 192 34 219 39 255 44 19 3 44 9
55 14 11 5 36 11 55 14 70 10 105 18 125 26 21 9 58 18 113 27 18 3 35 9 38
14 3 5 16 9 29 9 13 0 34 4 47 9 13 5 43 15 68 21 87 24 175 52 192 61 10 5
23 9 29 9 20 0 234 77 281 101 10 5 27 9 38 9 11 0 20 5 20 10 0 6 7 10 15 10
8 0 23 4 33 9 9 5 28 13 42 19 35 13 152 66 300 135 41 19 93 42 115 52 22 9
67 30 99 46 32 16 65 29 72 29 8 0 14 3 14 8 0 8 49 32 67 32 7 0 13 5 13 10
0 6 9 10 19 10 11 0 21 3 23 8 2 4 44 28 93 54 50 25 128 67 175 93 47 25 93
49 103 52 9 3 17 9 17 14 0 5 5 9 10 9 6 0 44 23 85 50 41 28 77 50 80 50 3 0
11 4 18 10 32 26 208 140 217 140 5 0 10 4 10 8 0 5 12 15 28 23 15 8 34 22
43 31 9 10 20 18 25 18 5 0 23 11 39 25 17 13 71 54 120 90 50 36 97 72 105
78 8 7 31 23 50 37 19 13 45 34 56 45 12 11 32 29 45 39 13 11 51 42 84 70 33
28 70 60 84 71 44 37 375 370 456 459 44 49 94 103 110 120 17 17 41 47 55 66
13 19 27 37 30 40 3 3 28 34 55 70 28 36 53 67 58 68 4 2 7 10 7 18 0 8 3 14
8 14 4 0 18 18 32 40 14 22 28 40 32 40 5 0 8 6 8 13 0 7 8 22 18 33 18 22 29
39 75 124 36 66 41 70 90 70 49 0 250 -44 324 -71 32 -11 68 -23 81 -26 12 -3
22 -9 22 -14 0 -5 6 -9 14 -9 13 0 136 -60 146 -71 3 -3 20 -12 38 -20 17 -8
32 -17 32 -21 0 -5 7 -8 15 -8 8 0 15 -3 15 -8 0 -4 15 -14 32 -21 38 -17 106
-57 200 -118 37 -23 72 -43 78 -43 5 0 10 -3 10 -8 0 -4 18 -18 40 -32 22 -14
40 -28 40 -32 0 -5 7 -8 15 -8 8 0 15 -4 15 -10 0 -5 5 -10 11 -10 7 0 19 -8
28 -18 9 -9 33 -29 53 -45 47 -35 332 -318 378 -376 19 -24 40 -48 45 -55 6
-6 22 -27 35 -46 13 -19 27 -37 31 -40 13 -10 117 -176 150 -240 19 -36 37
-66 42 -68 4 -2 7 -12 7 -23 0 -10 5 -19 10 -19 6 0 10 -9 10 -20 0 -11 3 -20
8 -20 4 0 13 -15 20 -32 7 -18 18 -41 23 -50 5 -10 9 -25 9 -33 0 -8 5 -15 10
-15 6 0 10 -6 10 -14 0 -7 9 -38 21 -67 12 -30 25 -63 29 -74 8 -21 41 -133
59 -200 32 -119 60 -376 47 -428 -6 -24 -7 -25 -163 -31 -339 -13 -637 -54
-918 -127 -22 -6 -55 -13 -72 -16 -18 -3 -33 -9 -33 -14 0 -5 -13 -9 -30 -9
-16 0 -30 -4 -30 -10 0 -5 -9 -10 -20 -10 -11 0 -29 -4 -40 -10 -11 -5 -29
-14 -40 -20 -11 -5 -27 -10 -35 -10 -8 0 -23 -4 -33 -9 -9 -5 -42 -20 -72 -34
-91 -41 -222 -105 -278 -137 -55 -31 -203 -129 -212 -140 -3 -3 -21 -17 -40
-30 -19 -13 -37 -27 -40 -30 -3 -3 -32 -27 -65 -55 -86 -72 -112 -99 -195
-205 -90 -115 -109 -142 -141 -200 -13 -25 -26 -47 -29 -50 -12 -12 -50 -93
-50 -106 0 -8 -4 -14 -10 -14 -5 0 -10 -11 -10 -25 0 -14 -4 -25 -10 -25 -5 0
-10 -11 -10 -24 0 -14 -4 -27 -9 -30 -5 -3 -11 -18 -14 -33 -2 -16 -13 -66
-22 -113 -35 -168 -17 -437 36 -542 5 -10 9 -24 9 -31 0 -18 23 -67 33 -67 4
0 7 -6 7 -13 0 -18 24 -67 33 -67 4 0 7 -7 7 -15 0 -8 5 -15 10 -15 6 0 10 -7
10 -15 0 -8 4 -15 8 -15 4 0 15 -12 24 -27 26 -43 152 -170 177 -178 11 -3 21
-10 21 -14 0 -4 46 -29 103 -55 56 -26 110 -52 119 -57 10 -5 29 -9 42 -9 14
0 27 -4 30 -9 14 -22 284 -42 421 -30 149 12 198 19 210 30 5 5 18 9 29 9 18
0 64 13 111 30 11 5 36 13 55 20 66 23 165 64 175 72 5 4 17 8 27 8 10 0 18 5
18 10 0 6 9 10 20 10 11 0 20 5 20 10 0 6 9 10 20 10 11 0 20 4 20 8 0 5 16
14 35 22 19 8 35 17 35 22 0 4 7 8 15 8 8 0 15 5 15 10 0 6 5 10 11 10 11 0
254 163 277 187 8 7 30 26 50 41 84 63 311 289 392 389 8 10 26 32 40 49 14
17 34 43 45 58 11 15 28 37 38 49 10 12 26 34 35 50 9 15 20 27 24 27 4 0 8 6
8 13 0 7 9 23 20 35 11 12 20 26 20 32 0 5 5 10 10 10 6 0 10 7 10 15 0 8 5
15 10 15 6 0 10 5 10 11 0 6 13 29 28 52 42 62 202 392 202 417 0 6 5 19 10
30 6 11 15 29 20 40 6 11 10 26 10 33 0 17 28 75 40 82 5 3 28 1 52 -4 24 -5
79 -14 123 -21 154 -22 345 -76 345 -97 0 -7 -120 -185 -130 -193 -4 -3 -13
-20 -21 -37 -8 -18 -17 -33 -21 -33 -5 0 -8 -7 -8 -15 0 -8 -4 -15 -10 -15 -5
0 -10 -9 -10 -19 0 -11 -3 -21 -8 -23 -6 -3 -69 -135 -92 -193 -4 -11 -12 -31
-18 -45 -6 -14 -16 -43 -23 -65 -7 -22 -17 -44 -21 -49 -4 -6 -8 -22 -8 -37 0
-15 -4 -31 -10 -34 -5 -3 -10 -19 -10 -35 0 -16 -4 -32 -10 -35 -5 -3 -10 -23
-10 -44 0 -20 -4 -41 -9 -47 -22 -23 -30 -270 -13 -384 20 -131 24 -150 33
-156 5 -3 9 -14 9 -25 0 -10 4 -27 9 -37 6 -9 24 -46 41 -81 83 -170 248 -323
412 -381 181 -63 312 -64 511 -4 81 25 210 82 215 96 2 4 10 8 18 8 8 0 14 5
14 10 0 6 6 10 13 10 19 0 83 55 197 170 109 109 180 189 180 202 0 4 8 17 18
28 45 53 154 271 183 365 6 22 15 49 20 60 7 20 10 29 31 135 15 69 14 297 0
370 -6 30 -14 72 -18 93 -3 20 -10 40 -15 43 -5 3 -9 13 -9 24 0 10 -8 35 -19
57 -10 21 -29 61 -42 88 -13 28 -42 81 -66 118 -24 37 -43 70 -43 74 0 3 -8
13 -18 22 -9 9 -30 33 -45 54 -16 20 -39 48 -53 62 -13 13 -24 32 -24 41 0 17
47 64 65 64 6 0 17 9 25 20 8 11 19 20 25 20 6 0 20 8 31 18 21 19 144 96 214
133 25 13 47 26 50 29 3 3 23 14 45 26 22 11 57 31 78 42 21 12 44 22 51 22 8
0 16 3 18 8 7 15 260 129 341 152 26 8 47 18 47 22 0 4 9 8 20 8 11 0 29 5 40
10 11 5 29 14 40 20 11 6 29 10 39 10 11 0 23 5 26 10 3 6 17 10 30 10 13 0
27 5 30 10 3 6 19 10 36 10 16 0 29 5 29 10 0 6 13 10 29 10 17 0 32 4 35 9 3
5 20 11 38 14 18 3 53 11 78 17 43 11 72 17 190 40 320 61 733 62 1020 1 25
-6 59 -13 75 -16 17 -4 39 -10 50 -15 11 -4 40 -14 65 -21 25 -7 49 -16 55
-21 5 -4 19 -8 32 -8 13 0 23 -4 23 -10 0 -5 7 -10 15 -10 8 0 23 -4 33 -9 9
-5 40 -19 67 -32 147 -69 344 -192 425 -266 97 -87 232 -231 254 -271 5 -9 12
-19 16 -22 12 -8 96 -143 111 -177 8 -18 17 -33 21 -33 5 0 8 -9 8 -20 0 -11
5 -20 10 -20 6 0 10 -6 10 -14 0 -8 10 -34 21 -58 12 -23 26 -54 32 -68 5 -14
13 -33 18 -42 5 -10 9 -26 9 -36 0 -10 4 -22 8 -28 5 -5 14 -29 21 -54 8 -25
17 -56 21 -70 4 -14 13 -52 20 -85 6 -33 15 -78 20 -100 47 -220 43 -615 -11
-900 -6 -33 -15 -80 -19 -105 -5 -25 -14 -65 -20 -90 -6 -25 -14 -60 -17 -78
-3 -18 -9 -35 -14 -38 -5 -3 -9 -16 -9 -30 0 -13 -4 -32 -9 -42 -5 -9 -14 -37
-21 -62 -7 -25 -16 -53 -21 -62 -5 -10 -9 -25 -9 -33 0 -8 -5 -25 -12 -38 -24
-47 -28 -57 -28 -72 0 -8 -4 -15 -10 -15 -5 0 -10 -11 -10 -24 0 -14 -5 -28
-10 -31 -5 -3 -10 -14 -10 -23 0 -16 -166 -361 -179 -372 -3 -3 -13 -18 -21
-35 -8 -16 -17 -32 -20 -35 -3 -3 -11 -15 -17 -27 -7 -13 -19 -33 -25 -45 -7
-13 -15 -25 -18 -28 -3 -3 -16 -25 -29 -50 -28 -50 -106 -165 -133 -194 -10
-11 -18 -25 -18 -31 0 -6 -9 -17 -20 -25 -11 -8 -20 -20 -20 -27 0 -7 -4 -13
-10 -13 -5 0 -10 -4 -10 -10 0 -5 -11 -22 -25 -37 -13 -16 -47 -57 -75 -93
-114 -146 -344 -392 -487 -520 -127 -115 -198 -176 -217 -189 -12 -8 -28 -22
-36 -31 -8 -8 -31 -27 -52 -42 -20 -15 -42 -34 -50 -41 -7 -7 -31 -26 -53 -42
-22 -17 -42 -32 -45 -35 -3 -3 -21 -17 -40 -30 -19 -13 -37 -27 -40 -30 -3 -3
-21 -17 -40 -30 -19 -13 -37 -27 -40 -30 -3 -3 -21 -17 -40 -30 -19 -13 -37
-27 -40 -30 -8 -10 -229 -160 -235 -160 -3 0 -15 -9 -27 -20 -12 -11 -28 -20
-35 -20 -7 0 -13 -4 -13 -10 0 -5 -7 -10 -15 -10 -8 0 -15 -4 -15 -10 0 -5 -6
-10 -13 -10 -7 0 -22 -8 -33 -17 -25 -23 -74 -53 -96 -60 -10 -3 -18 -9 -18
-14 0 -5 -4 -9 -10 -9 -5 0 -44 -20 -86 -45 -41 -25 -80 -45 -85 -45 -5 0 -9
-4 -9 -10 0 -5 -9 -10 -19 -10 -11 0 -21 -3 -23 -7 -1 -5 -22 -18 -45 -30 -24
-13 -62 -33 -85 -45 -24 -13 -45 -25 -48 -28 -10 -11 -395 -200 -407 -200 -7
0 -13 -4 -13 -10 0 -5 -9 -10 -20 -10 -11 0 -20 -4 -20 -10 0 -5 -9 -10 -20
-10 -11 0 -20 -4 -20 -10 0 -5 -6 -10 -14 -10 -7 0 -40 -13 -72 -29 -164 -81
-397 -181 -420 -181 -8 0 -14 -4 -14 -10 0 -5 -11 -10 -24 -10 -14 0 -28 -5
-31 -10 -3 -6 -15 -10 -26 -10 -10 0 -19 -4 -19 -10 0 -5 -7 -10 -15 -10 -8 0
-23 -4 -33 -9 -16 -8 -34 -16 -94 -40 -13 -5 -50 -19 -83 -31 -33 -12 -69 -26
-80 -30 -56 -23 -139 -52 -215 -75 -47 -15 -93 -31 -102 -36 -10 -5 -27 -9
-37 -9 -11 0 -23 -4 -26 -10 -3 -5 -19 -10 -36 -10 -16 0 -29 -4 -29 -10 0 -5
-13 -10 -29 -10 -17 0 -33 -4 -36 -10 -3 -5 -17 -10 -30 -10 -13 0 -27 -4 -30
-10 -3 -5 -17 -10 -31 -10 -13 0 -32 -4 -42 -9 -9 -5 -37 -15 -62 -21 -25 -7
-54 -16 -65 -20 -11 -5 -31 -11 -45 -14 -23 -4 -40 -9 -132 -35 -74 -21 -277
-70 -338 -81 -36 -7 -75 -16 -88 -21 -13 -5 -35 -9 -50 -9 -16 0 -32 -4 -38
-9 -5 -5 -27 -11 -49 -15 -98 -13 -121 -18 -140 -26 -11 -5 -38 -11 -60 -15
-38 -5 -63 -10 -195 -35 -65 -12 -148 -26 -245 -41 -38 -6 -95 -14 -125 -19
-90 -14 -215 -31 -440 -59 -919 -116 -2139 -169 -3010 -133 -405 17 -498 24
-870 62 -200 20 -504 60 -685 89 -33 5 -94 15 -135 22 -41 6 -97 16 -125 21
-27 5 -75 13 -105 18 -94 16 -247 44 -330 60 -30 6 -73 13 -95 16 -22 3 -49 9
-60 14 -11 5 -40 11 -65 15 -101 13 -125 17 -134 26 -6 5 -23 9 -39 9 -16 0
-46 4 -66 9 -20 5 -63 15 -96 21 -78 15 -166 35 -290 67 -55 14 -115 28 -133
30 -18 3 -35 9 -38 14 -3 5 -16 9 -30 9 -13 0 -32 4 -42 9 -9 5 -78 28 -152
52 -74 23 -139 46 -144 51 -6 4 -18 8 -28 8 -10 0 -26 4 -36 10 -9 5 -51 21
-92 34 -41 13 -86 29 -100 34 -14 6 -52 20 -85 32 -33 12 -75 29 -92 36 -18 8
-50 21 -70 30 -21 9 -47 20 -58 24 -25 9 -114 49 -137 61 -10 5 -25 9 -33 9
-8 0 -15 5 -15 10 0 6 -9 10 -20 10 -11 0 -20 5 -20 10 0 6 -7 10 -15 10 -20
0 -380 183 -395 201 -3 3 -20 12 -37 20 -18 8 -33 17 -33 21 0 5 -6 8 -13 8
-7 0 -23 9 -35 20 -12 11 -28 20 -37 20 -8 0 -15 4 -15 9 0 5 -9 12 -19 16
-20 6 -322 202 -331 214 -3 4 -27 23 -55 41 -56 38 -242 176 -261 194 -6 6
-51 47 -99 91 -148 135 -226 215 -365 375 -12 14 -34 41 -49 60 -14 19 -29 37
-32 40 -13 10 -136 205 -150 238 -8 17 -17 32 -21 32 -5 0 -8 9 -8 19 0 11 -3
21 -7 23 -11 4 -73 128 -73 144 0 8 -4 14 -10 14 -5 0 -10 7 -10 15 0 8 -4 23
-9 33 -31 60 -59 129 -106 257 -20 55 -41 110 -46 123 -5 13 -9 49 -10 80 0
60 -19 166 -32 178 -4 4 -7 13 -7 21 0 25 -112 143 -136 143 -8 0 -26 8 -40
17 -20 13 -48 17 -118 16 -78 0 -98 -4 -142 -27 -29 -14 -56 -26 -60 -26 -15
-1 -87 -96 -116 -151 -16 -32 -31 -86 -39 -136 -16 -107 1 -199 71 -398 34
-97 37 -105 69 -177 12 -26 21 -55 21 -63 0 -8 5 -15 10 -15 6 0 10 -7 10 -15
0 -8 4 -23 9 -33 5 -9 19 -39 31 -67 12 -27 26 -58 31 -67 5 -10 9 -24 9 -32
0 -8 3 -16 8 -18 4 -1 34 -57 66 -123 32 -66 62 -122 65 -125 10 -8 42 -63 48
-82 3 -10 9 -18 14 -18 5 0 9 -7 9 -15 0 -8 4 -15 8 -15 5 0 15 -12 23 -27 8
-15 19 -35 26 -43 6 -8 39 -52 71 -96 65 -88 86 -114 117 -148 11 -12 49 -55
85 -96 119 -136 313 -324 440 -425 41 -33 77 -62 80 -65 3 -3 32 -25 65 -50
33 -25 62 -47 65 -50 3 -3 21 -17 40 -30 19 -13 42 -32 51 -42 9 -10 19 -18
23 -18 6 0 208 -130 216 -139 3 -3 17 -12 32 -20 16 -8 28 -18 28 -23 0 -4 6
-8 13 -8 7 0 22 -8 33 -17 19 -17 31 -24 86 -56 13 -6 25 -14 28 -17 3 -3 16
-11 30 -19 96 -55 150 -87 185 -107 22 -13 65 -36 95 -51 30 -15 57 -30 60
-33 3 -4 20 -13 38 -21 17 -8 32 -17 32 -21 0 -5 9 -8 20 -8 11 0 20 -4 20
-10 0 -5 6 -10 14 -10 8 0 31 -9 53 -20 21 -10 81 -38 133 -61 52 -23 118 -51
145 -63 28 -13 66 -28 85 -36 19 -7 39 -17 44 -22 6 -4 18 -8 28 -8 10 0 18
-4 18 -10 0 -5 9 -10 20 -10 11 0 28 -4 38 -9 9 -5 30 -15 45 -22 15 -7 26
-18 25 -25 -2 -7 -41 -52 -88 -101 -47 -48 -106 -117 -130 -153 -24 -36 -46
-67 -49 -70 -7 -6 -26 -39 -55 -95 -12 -22 -23 -42 -26 -45 -6 -5 -36 -68 -69
-142 -22 -50 -76 -206 -93 -268 -43 -159 -50 -213 -55 -430 -5 -216 4 -296 49
-450 30 -104 132 -341 150 -348 4 -2 8 -10 8 -18 0 -8 5 -14 10 -14 6 0 10 -5
10 -11 0 -6 14 -30 30 -54 17 -24 30 -48 30 -54 0 -6 4 -11 8 -11 4 0 16 -13
25 -30 10 -16 23 -35 30 -42 7 -7 30 -35 52 -63 133 -165 344 -337 508 -412
20 -10 37 -21 37 -25 0 -5 9 -8 19 -8 11 0 23 -4 26 -10 3 -5 15 -10 26 -10
10 0 19 -4 19 -10 0 -5 9 -10 19 -10 11 0 23 -4 26 -10 3 -5 17 -10 31 -10 13
0 24 -4 24 -9 0 -5 15 -11 33 -14 17 -3 59 -12 92 -20 174 -44 440 -47 645 -6
58 11 122 23 143 26 20 3 37 9 37 14 0 5 13 9 29 9 17 0 33 5 36 10 3 6 17 10
30 10 13 0 27 5 30 10 3 6 15 10 26 10 10 0 27 4 37 9 9 5 40 19 67 31 28 12
58 26 67 31 10 5 25 9 33 9 8 0 15 5 15 10 0 6 9 10 19 10 11 0 21 3 23 8 2 4
37 25 78 46 41 21 87 47 102 57 14 11 31 19 37 19 6 0 11 4 11 8 0 5 12 15 28
23 15 8 34 22 43 31 9 10 20 18 23 18 4 0 13 6 20 12 7 7 28 24 46 38 18 14
38 30 44 35 6 6 39 32 74 59 99 76 303 271 397 381 33 39 62 72 65 75 3 3 25
32 50 65 25 33 48 62 53 63 4 2 7 10 7 18 0 8 5 14 10 14 6 0 10 7 10 15 0 8
5 15 10 15 6 0 10 6 10 13 0 7 9 23 20 35 11 12 20 28 20 36 0 8 3 16 8 18 11
5 89 167 134 278 6 14 14 33 19 42 5 10 9 25 9 33 0 8 5 24 10 35 6 11 15 29
20 40 6 11 10 31 10 45 0 14 5 25 10 25 6 0 10 13 10 29 0 17 5 33 10 36 6 3
10 19 10 35 0 16 5 32 10 35 6 3 10 21 10 40 0 19 4 36 9 39 4 3 11 25 14 48
12 83 35 171 49 180 7 5 36 6 63 3 66 -9 247 -21 525 -37 458 -26 1481 -15
2095 22 418 25 1155 98 1518 150 164 24 215 31 262 36 28 3 59 9 70 14 11 5
40 11 65 14 25 3 71 10 103 16 129 23 165 30 217 40 71 14 133 27 190 39 25 5
90 19 145 31 133 29 253 57 345 80 19 5 49 12 65 15 17 4 39 10 50 15 21 9 59
18 113 27 18 3 35 9 38 14 3 5 18 9 34 9 16 0 32 4 35 10 3 5 17 10 31 10 13
0 32 4 42 9 9 5 35 14 57 20 22 6 130 40 240 76 110 36 207 65 217 65 9 0 20
5 23 10 3 6 15 10 26 10 10 0 27 4 37 9 9 5 31 14 47 21 17 7 38 16 47 21 10
5 25 9 33 9 8 0 24 5 35 10 11 6 29 15 40 20 11 6 29 10 40 10 11 0 20 5 20
10 0 6 7 10 15 10 8 0 34 8 58 19 23 10 119 49 212 85 94 37 178 71 187 77 10
5 25 9 33 9 8 0 15 5 15 10 0 6 6 10 14 10 7 0 40 13 72 29 32 16 88 42 124
59 99 46 227 106 309 146 41 20 80 36 87 36 7 0 14 3 16 8 2 4 30 21 63 38
199 104 288 151 348 186 38 21 73 38 78 38 5 0 9 5 9 10 0 6 9 10 19 10 11 0
21 3 23 8 4 9 57 41 81 49 9 3 17 9 17 14 0 5 5 9 11 9 6 0 29 13 52 29 23 16
58 38 77 49 19 11 64 38 100 61 36 23 72 44 80 48 8 4 24 15 34 25 11 10 26
18 33 18 7 0 13 3 13 8 0 4 18 18 40 32 22 14 40 28 40 32 0 5 6 8 13 8 7 0
22 8 33 18 10 9 51 40 89 67 39 27 79 57 89 67 11 10 24 18 29 18 5 0 17 8 26
18 9 10 32 29 51 42 19 13 37 27 40 30 3 3 25 21 50 40 25 19 52 40 60 47 8 7
47 37 85 68 95 76 157 130 321 280 86 79 136 129 336 336 25 27 64 70 85 96
21 27 40 50 43 53 3 3 28 32 55 65 28 33 58 67 67 76 10 9 18 21 18 26 0 6 12
23 28 39 24 26 132 171 157 213 6 9 13 18 16 21 10 9 69 98 69 105 0 3 9 15
20 27 11 12 20 28 20 35 0 7 5 13 10 13 6 0 10 7 10 15 0 8 5 15 10 15 6 0 10
4 10 8 0 5 21 46 46 93 26 46 65 120 88 164 22 44 44 82 49 83 4 2 7 12 7 23
0 10 3 19 8 19 8 0 32 49 32 67 0 7 5 13 10 13 6 0 10 9 10 20 0 11 5 20 10
20 6 0 10 9 10 19 0 11 3 21 8 23 4 2 15 23 24 48 9 25 33 88 53 140 20 52 48
131 62 175 14 44 29 89 33 100 4 11 13 40 20 65 6 25 16 53 21 62 5 10 9 31 9
47 0 17 5 33 10 36 6 3 10 19 10 35 0 16 4 32 10 35 5 3 10 24 10 45 0 21 5
42 10 45 6 3 10 26 10 50 0 24 4 46 9 49 5 3 11 29 14 58 3 29 13 107 21 173
33 255 31 602 -4 860 -6 39 -13 94 -16 123 -4 29 -10 55 -15 58 -5 3 -9 23 -9
44 0 21 -4 42 -10 45 -5 3 -10 19 -10 35 0 16 -4 32 -10 35 -5 3 -10 19 -10
35 0 16 -4 32 -10 35 -5 3 -10 17 -10 31 0 13 -5 34 -12 47 -24 46 -28 57 -28
70 0 8 -6 27 -14 43 -8 16 -21 45 -29 64 -59 138 -129 284 -139 288 -4 2 -8
12 -8 23 0 10 -4 19 -10 19 -5 0 -10 7 -10 15 0 8 -4 15 -10 15 -5 0 -10 7
-10 15 0 8 -4 15 -10 15 -5 0 -10 5 -10 10 0 6 -9 20 -20 32 -11 12 -20 28
-20 35 0 7 -4 13 -8 13 -4 0 -16 13 -25 30 -10 16 -23 35 -30 42 -7 7 -35 42
-64 78 -53 68 -270 283 -337 335 -70 54 -211 154 -236 167 -14 7 -27 15 -30
18 -10 10 -65 41 -82 47 -10 3 -18 9 -18 14 0 5 -5 9 -11 9 -6 0 -61 24 -122
54 -99 47 -152 71 -247 109 -49 19 -65 25 -110 37 -25 6 -53 16 -62 21 -10 5
-29 9 -42 9 -14 0 -28 5 -31 10 -3 6 -21 10 -39 10 -17 0 -36 4 -41 9 -6 5
-32 12 -60 15 -27 3 -81 10 -120 15 -267 41 -683 40 -985 0 -41 -5 -95 -12
-120 -15 -25 -3 -49 -10 -55 -15 -5 -5 -30 -9 -56 -9 -26 0 -51 -4 -54 -10 -3
-5 -21 -10 -40 -10 -19 0 -37 -4 -40 -10 -3 -5 -19 -10 -35 -10 -16 0 -32 -4
-35 -10 -3 -5 -16 -10 -27 -10 -20 0 -63 -12 -113 -30 -11 -4 -40 -13 -65 -20
-25 -6 -53 -16 -62 -21 -10 -5 -26 -9 -36 -9 -10 0 -22 -4 -27 -8 -6 -4 -28
-14 -50 -21 -67 -21 -228 -82 -270 -101 -22 -10 -60 -27 -85 -37 -41 -17 -328
-160 -430 -214 -25 -13 -46 -27 -48 -31 -2 -5 -10 -8 -18 -8 -8 0 -24 -9 -36
-20 -12 -11 -28 -20 -35 -20 -7 0 -13 -4 -13 -10 0 -5 -5 -10 -11 -10 -10 0
-288 -185 -299 -199 -3 -4 -21 -18 -40 -31 -19 -14 -46 -35 -60 -47 -128 -114
-113 -112 -252 -42 -10 5 -25 9 -33 9 -8 0 -15 5 -15 10 0 6 -10 10 -23 10
-13 0 -27 3 -31 7 -9 10 -78 33 -98 33 -10 0 -18 5 -18 10 0 6 -13 10 -29 10
-17 0 -32 4 -35 9 -3 5 -23 11 -43 14 -21 3 -81 14 -133 26 -52 11 -142 28
-200 36 -57 9 -110 21 -117 27 -8 7 -13 36 -13 82 -1 139 -35 407 -71 556 -6
25 -13 60 -16 78 -3 18 -9 35 -14 38 -5 3 -9 18 -9 35 0 16 -4 29 -10 29 -5 0
-10 14 -10 30 0 17 -4 30 -10 30 -5 0 -10 8 -10 18 0 20 -23 89 -33 98 -4 4
-7 18 -7 31 0 12 -4 23 -10 23 -5 0 -10 7 -10 15 0 15 -6 30 -85 200 -23 50
-48 105 -56 123 -7 17 -17 32 -21 32 -5 0 -8 7 -8 15 0 8 -4 15 -10 15 -5 0
-10 9 -10 20 0 11 -4 20 -8 20 -5 0 -15 12 -23 28 -7 15 -26 46 -41 69 -15 23
-28 46 -28 51 0 6 -4 12 -8 14 -4 2 -39 48 -77 103 -38 55 -71 102 -75 105 -3
3 -17 21 -30 40 -14 19 -34 44 -45 56 -11 11 -56 61 -100 109 -44 49 -101 110
-127 137 -27 27 -48 53 -48 59 0 9 105 3 145 -8 70 -19 309 -40 602 -52 375
-15 943 10 1308 59 44 6 107 13 140 16 33 3 64 10 70 15 5 5 34 9 65 9 31 0
60 4 65 9 6 5 31 12 58 15 26 3 68 9 95 12 26 3 51 10 57 15 5 5 20 9 34 9 13
0 38 4 55 9 17 5 56 14 86 21 61 12 65 13 270 71 80 23 160 44 178 46 17 3 32
9 32 14 0 5 11 9 24 9 14 0 28 5 31 10 3 6 15 10 26 10 10 0 28 5 39 10 11 6
29 15 40 20 11 6 29 10 39 10 11 0 23 5 26 10 3 6 16 10 29 10 12 0 26 4 31 8
6 4 28 14 50 21 22 7 49 16 60 21 77 33 310 120 321 120 8 0 14 5 14 10 0 6 7
10 15 10 8 0 24 5 35 10 11 6 29 15 40 20 11 6 27 10 35 10 8 0 15 5 15 10 0
6 9 10 19 10 11 0 23 5 26 10 3 6 15 10 26 10 10 0 19 5 19 10 0 6 9 10 20 10
11 0 20 5 20 10 0 6 6 10 14 10 12 0 106 46 321 158 39 21 72 39 75 42 3 3 16
11 29 18 13 8 38 22 56 32 56 32 79 45 89 53 26 18 248 157 252 157 3 0 14 9
26 20 12 11 28 20 35 20 7 0 13 3 13 8 0 4 18 18 40 32 22 14 40 28 40 32 0 4
9 10 20 13 11 3 26 12 32 18 7 7 49 39 93 72 176 133 430 375 550 525 71 90
87 109 100 124 6 6 16 23 24 39 8 15 18 27 23 27 4 0 8 6 8 13 0 7 8 22 18 33
50 58 161 291 203 429 6 22 15 49 20 60 20 52 42 221 42 335 1 115 -21 293
-43 345 -4 11 -14 40 -21 65 -7 25 -16 49 -21 55 -4 5 -8 16 -8 24 0 19 -110
245 -121 249 -5 2 -9 9 -9 16 0 7 -8 21 -17 32 -10 11 -34 40 -53 64 -60 78
-140 163 -230 243 -52 48 -303 219 -347 238 -18 8 -33 17 -33 21 0 5 -9 8 -20
8 -11 0 -20 5 -20 10 0 6 -9 10 -20 10 -11 0 -20 5 -20 10 0 6 -5 10 -10 10
-6 0 -29 9 -53 19 -49 23 -181 77 -247 104 -14 5 -33 13 -42 18 -10 5 -27 9
-37 9 -11 0 -23 5 -26 10 -3 6 -17 10 -30 10 -13 0 -27 5 -30 10 -3 6 -17 10
-30 10 -13 0 -27 5 -30 10 -3 6 -19 10 -35 10 -16 0 -32 5 -35 10 -3 6 -19 10
-36 10 -16 0 -29 5 -29 10 0 6 -15 10 -34 10 -19 0 -38 5 -41 10 -3 6 -21 10
-40 10 -19 0 -36 4 -39 9 -3 5 -23 11 -43 14 -21 3 -58 10 -83 15 -225 48
-598 99 -855 119 -171 13 -904 9 -1085 -6 -257 -21 -312 -23 -321 -14 -8 8 45
96 83 137 10 11 18 25 18 31 0 6 9 17 20 25 11 8 20 22 20 32 0 10 4 18 8 18
5 0 15 12 23 28 8 15 17 29 20 32 7 6 86 148 119 215 14 28 28 52 33 53 4 2 7
12 7 22 0 10 5 22 10 25 6 3 10 15 10 26 0 10 5 19 10 19 6 0 10 7 10 15 0 8
4 23 9 33 5 9 14 31 21 47 7 17 16 38 21 47 5 10 9 27 9 37 0 11 5 23 10 26 6
3 10 17 10 30 0 13 4 26 9 29 5 3 11 20 14 38 3 18 12 65 21 103 66 286 59
656 -17 885 -6 19 -15 39 -19 45 -4 5 -8 19 -8 31 0 13 -4 26 -10 29 -5 3 -10
15 -10 26 0 10 -4 19 -10 19 -5 0 -10 9 -10 20 0 11 -4 20 -10 20 -5 0 -10 9
-10 20 0 11 -4 20 -10 20 -5 0 -10 9 -10 20 0 11 -4 20 -8 20 -5 0 -18 19 -31
43 -74 138 -270 355 -387 427 -13 8 -24 18 -24 22 0 5 -7 8 -15 8 -8 0 -15 4
-15 8 0 5 -12 15 -27 23 -16 8 -30 17 -33 20 -9 12 -253 139 -266 139 -7 0
-16 5 -19 10 -3 6 -15 10 -26 10 -10 0 -19 5 -19 10 0 6 -7 10 -15 10 -9 0
-35 9 -57 20 -23 11 -50 20 -59 20 -10 0 -21 5 -24 10 -3 6 -17 10 -30 10 -13
0 -27 5 -30 10 -3 6 -17 10 -30 10 -13 0 -27 5 -30 10 -3 6 -19 10 -35 10 -16
0 -31 4 -34 9 -3 5 -20 11 -38 14 -18 3 -53 10 -78 15 -195 40 -254 52 -315
61 -38 7 -83 14 -100 17 -62 11 -205 24 -375 34 -96 5 -197 11 -225 12 -27 2
-63 2 -80 0z m-2555 -4346 c93 -18 87 -16 221 -70 177 -72 356 -240 434 -411
51 -110 76 -284 55 -376 -18 -80 -50 -170 -71 -201 -11 -14 -19 -29 -19 -33 0
-16 -65 -98 -131 -164 -74 -75 -215 -175 -304 -215 -151 -69 -251 -91 -420
-91 -177 0 -272 21 -415 93 -99 49 -221 170 -267 263 -107 218 -98 436 27 706
149 320 417 508 730 512 47 1 119 -5 160 -13z m2530 -6544 c0 -29 -99 -216
-173 -327 -96 -144 -186 -255 -312 -380 -126 -127 -166 -162 -288 -248 -296
-210 -584 -303 -799 -258 -72 15 -114 44 -147 101 -23 41 -26 55 -25 150 0 97
3 110 32 173 68 145 200 306 315 383 23 16 44 32 47 35 10 12 141 89 220 129
118 59 235 105 360 140 25 7 56 16 70 21 35 11 193 45 270 58 56 9 115 16 275
35 17 1 58 4 93 5 54 1 62 -1 62 -17z m1958 -544 c161 -212 149 -422 -40 -680
-85 -116 -217 -218 -283 -218 -31 0 -61 38 -76 98 -31 125 46 394 180 627 49
85 155 225 170 225 5 0 27 -24 49 -52z m-8836 -6122 c150 -39 275 -69 363 -86
84 -17 85 -17 85 -36 0 -9 -23 -57 -52 -108 -28 -50 -62 -110 -75 -133 -39
-71 -69 -126 -90 -163 -47 -84 -151 -288 -162 -320 -7 -19 -17 -44 -21 -55
-32 -78 -41 -188 -19 -242 32 -78 57 -118 96 -153 109 -95 242 -111 379 -44
96 47 164 135 239 309 21 49 76 163 213 445 154 319 166 341 172 345 4 2 98
-11 211 -30 112 -19 236 -39 274 -45 164 -26 185 -32 185 -51 0 -10 -7 -44
-16 -76 -8 -32 -24 -89 -34 -128 -51 -198 -126 -378 -214 -514 -127 -197 -420
-481 -670 -648 -259 -174 -622 -278 -846 -243 -116 19 -130 22 -136 31 -3 5
-13 9 -22 9 -19 0 -125 53 -196 97 -66 41 -219 201 -275 288 -62 95 -126 226
-148 304 -10 36 -17 112 -20 216 -7 233 26 385 128 600 81 168 182 278 302
326 58 23 95 47 136 85 31 29 61 53 68 54 6 0 71 -15 145 -34z"/>
<path d="M5292 7530 c-130 -18 -259 -67 -346 -130 -29 -21 -170 -164 -238
-240 -77 -88 -122 -148 -139 -187 -8 -18 -17 -33 -21 -33 -5 0 -8 -9 -8 -19 0
-11 -4 -23 -10 -26 -5 -3 -10 -17 -10 -30 0 -13 -4 -26 -9 -29 -10 -7 -20 -63
-28 -161 -13 -178 81 -395 223 -512 25 -21 58 -48 72 -60 15 -13 33 -23 40
-23 6 0 12 -4 12 -8 0 -5 16 -14 35 -22 19 -8 35 -17 35 -22 0 -4 7 -8 15 -8
8 0 23 -4 33 -10 32 -18 113 -40 205 -56 179 -31 467 -5 625 57 12 5 32 13 45
18 137 53 308 163 388 249 71 76 109 124 109 140 0 6 5 12 10 12 6 0 10 6 10
13 0 18 24 67 33 67 4 0 7 11 7 24 0 14 5 28 10 31 6 3 10 21 10 39 0 17 5 37
11 43 6 6 9 48 6 114 -6 135 -14 174 -48 241 -5 10 -9 25 -9 33 0 8 -4 15 -10
15 -5 0 -10 9 -10 20 0 11 -4 20 -8 20 -5 0 -15 12 -23 28 -33 64 -185 200
-292 261 -20 11 -53 30 -72 41 -20 11 -42 20 -50 20 -8 0 -15 5 -15 10 0 6 -9
10 -19 10 -11 0 -22 4 -25 9 -3 5 -18 11 -33 14 -16 3 -64 15 -108 27 -92 24
-302 34 -403 20z"/>
<path d="M8170 6750 c-14 -5 -45 -14 -70 -21 -91 -26 -226 -110 -279 -173 -14
-15 -30 -33 -36 -40 -24 -24 -92 -134 -125 -201 -19 -38 -38 -71 -42 -73 -4
-2 -8 -12 -8 -23 0 -10 -4 -19 -10 -19 -5 0 -10 -9 -10 -19 0 -11 -4 -22 -9
-25 -13 -8 -40 -114 -51 -198 -10 -81 6 -227 33 -298 25 -66 52 -120 59 -120
5 0 8 -6 8 -12 1 -46 251 -278 299 -278 6 0 11 -3 11 -7 0 -9 49 -33 67 -33 7
0 13 -4 13 -10 0 -5 11 -10 25 -10 14 0 25 -4 25 -10 0 -5 14 -10 30 -10 17 0
30 -4 30 -9 0 -9 19 -13 160 -31 90 -12 313 -6 365 10 17 5 50 14 75 20 25 7
53 16 62 21 10 5 27 9 38 9 11 0 20 5 20 10 0 6 7 10 15 10 8 0 23 4 33 9 9 5
48 24 85 42 85 42 257 171 257 193 0 3 16 27 35 52 84 110 122 263 104 420 -9
79 -35 181 -51 198 -4 6 -8 18 -8 28 0 10 -4 18 -8 18 -5 0 -14 16 -22 35 -8
19 -17 35 -22 35 -4 0 -8 6 -8 13 0 7 -8 22 -17 33 -10 10 -30 35 -44 54 -39
51 -178 190 -191 190 -6 0 -18 8 -27 18 -20 21 -39 33 -169 99 -56 29 -109 53
-117 53 -9 0 -23 4 -33 9 -9 5 -37 14 -62 21 -25 6 -59 16 -76 21 -37 11 -319
10 -354 -1z"/>
</g>
</svg>
